<svg width="14" height="14" viewBox="0 0 14 14" fill="none" xmlns="http://www.w3.org/2000/svg">
<path fill-rule="evenodd" clip-rule="evenodd" d="M0.870765 7.40062C0.630258 7.40062 0.435303 7.59536 0.435303 7.83587V13.0598C0.435303 13.3003 0.630258 13.495 0.870765 13.495H6.09465C6.33494 13.495 6.5299 13.3003 6.5299 13.0598V8.91345C6.5299 8.07784 5.85268 7.40062 5.01706 7.40062H0.870765ZM13.0598 7.40062H8.91345C8.07784 7.40062 7.40062 8.07784 7.40062 8.91345V13.0598C7.40062 13.3003 7.59536 13.495 7.83587 13.495H13.0598C13.3003 13.495 13.495 13.3003 13.495 13.0598V7.83587C13.495 7.59536 13.3003 7.40062 13.0598 7.40062ZM8.91345 8.27112H12.6245V12.6245H8.27112V8.91345C8.27112 8.55865 8.55865 8.27112 8.91345 8.27112ZM1.30602 8.27112H5.01706C5.37166 8.27112 5.65918 8.55865 5.65918 8.91345V12.6245H1.30602V8.27112ZM0.870765 0.435303C0.630258 0.435303 0.435303 0.630258 0.435303 0.870765V6.09465C0.435303 6.33494 0.630258 6.5299 0.870765 6.5299H5.01706C5.85268 6.5299 6.5299 5.85268 6.5299 5.01706V0.870765C6.5299 0.630258 6.33494 0.435303 6.09465 0.435303H0.870765ZM7.83587 0.435303C7.59536 0.435303 7.40062 0.630258 7.40062 0.870765V5.01706C7.40062 5.85268 8.07784 6.5299 8.91345 6.5299H13.0598C13.3003 6.5299 13.495 6.33494 13.495 6.09465V0.870765C13.495 0.630258 13.3003 0.435303 13.0598 0.435303H7.83587ZM8.27112 1.30602H12.6245V5.65918H8.91345C8.55865 5.65918 8.27112 5.37166 8.27112 5.01706V1.30602ZM1.30602 1.30602H5.65918V5.01706C5.65918 5.37166 5.37166 5.65918 5.01706 5.65918H1.30602V1.30602Z" fill="#606060"/>
</svg>
