<svg width="14" height="14" viewBox="0 0 14 14" fill="none" xmlns="http://www.w3.org/2000/svg">
<mask id="mask0_2550_1217" style="mask-type:luminance" maskUnits="userSpaceOnUse" x="0" y="0" width="14" height="14">
<path d="M0 0H14V14H0V0Z" fill="white"/>
</mask>
<g mask="url(#mask0_2550_1217)">
<path d="M10.7442 12.7248L6.66086 9.80806L6.99992 9.33339L7.33897 9.80806L3.25564 12.7248C3.22447 12.747 3.19143 12.766 3.15652 12.7818C3.12161 12.7975 3.0855 12.8097 3.04818 12.8183C3.01087 12.827 2.97307 12.8319 2.93478 12.8331C2.8965 12.8343 2.85847 12.8318 2.82069 12.8255C2.7829 12.8192 2.7461 12.8093 2.71027 12.7957C2.67445 12.7822 2.64029 12.7652 2.60779 12.745C2.5753 12.7247 2.54509 12.7014 2.51717 12.6753C2.48926 12.649 2.46417 12.6203 2.44191 12.5892C2.40657 12.5397 2.37963 12.486 2.36108 12.4281C2.34253 12.3702 2.33325 12.3109 2.33325 12.2501V2.91675C2.33325 2.4335 2.50411 2.02102 2.84582 1.67931C3.18752 1.3376 3.6 1.16675 4.08325 1.16675H9.91658C10.3998 1.16675 10.8123 1.3376 11.154 1.67931C11.4957 2.02102 11.6666 2.4335 11.6666 2.91675V12.2501C11.6666 12.2884 11.6629 12.3263 11.6554 12.3639C11.6479 12.4015 11.6369 12.4379 11.6222 12.4733C11.6076 12.5087 11.5896 12.5423 11.5683 12.5742C11.547 12.606 11.5228 12.6355 11.4957 12.6626C11.4686 12.6897 11.4392 12.7138 11.4073 12.7351C11.3755 12.7564 11.3419 12.7744 11.3065 12.789C11.2711 12.8037 11.2346 12.8147 11.197 12.8222C11.1595 12.8297 11.1215 12.8334 11.0833 12.8334C11.0225 12.8334 10.9631 12.8241 10.9053 12.8056C10.8474 12.787 10.7937 12.7601 10.7442 12.7248ZM11.4223 11.7754L11.0833 12.2501H10.4999V2.91675C10.4999 2.75567 10.443 2.61817 10.3291 2.50427C10.2152 2.39037 10.0777 2.33341 9.91658 2.33341H4.08325C3.92217 2.33341 3.78468 2.39037 3.67077 2.50427C3.55687 2.61817 3.49992 2.75567 3.49992 2.91675V12.2501H2.91659L2.57753 11.7754L6.66086 8.85872C6.68545 8.84118 6.71124 8.82564 6.73824 8.8121C6.76524 8.79852 6.79313 8.78713 6.8219 8.77794C6.85067 8.7687 6.87998 8.76175 6.90983 8.75708C6.93967 8.75242 6.9697 8.75008 6.99992 8.75008C7.03013 8.75008 7.06016 8.75242 7.09001 8.75708C7.11986 8.76175 7.14917 8.7687 7.17794 8.77794C7.20671 8.78713 7.2346 8.79852 7.2616 8.8121C7.2886 8.82564 7.31439 8.84118 7.33897 8.85872L11.4223 11.7754Z" fill="#606060"/>
</g>
</svg>

