<svg width="22" height="20" viewBox="0 0 22 20" fill="none" xmlns="http://www.w3.org/2000/svg">
<mask id="mask0_0_1" style="mask-type:luminance" maskUnits="userSpaceOnUse" x="0" y="6" width="15" height="14">
<path d="M0 6H15V20H0V6Z" fill="white"/>
</mask>
<g mask="url(#mask0_0_1)">
<mask id="mask1_0_1" style="mask-type:luminance" maskUnits="userSpaceOnUse" x="0" y="6" width="15" height="14">
<path d="M0 6H15V20H0V6Z" fill="white"/>
</mask>
<g mask="url(#mask1_0_1)">
<path d="M0.936768 9.5C0.936768 8.5335 1.77623 7.75 2.81177 7.75H12.1868C13.2223 7.75 14.0618 8.5335 14.0618 9.5V17.375C14.0618 18.3415 13.2223 19.125 12.1868 19.125H2.81177C1.77623 19.125 0.936768 18.3415 0.936768 17.375V9.5ZM2.81177 8.625C2.294 8.625 1.87427 9.01675 1.87427 9.5V17.375C1.87427 17.8583 2.294 18.25 2.81177 18.25H12.1868C12.7045 18.25 13.1243 17.8583 13.1243 17.375V9.5C13.1243 9.01675 12.7045 8.625 12.1868 8.625H2.81177Z" fill="#606060"/>
<path d="M8.67114 11.6875C9.05946 11.6875 9.37427 11.9813 9.37427 12.3438C9.37427 12.7062 9.05946 13 8.67114 13C8.28282 13 7.96802 12.7062 7.96802 12.3438C7.96802 11.9813 8.28282 11.6875 8.67114 11.6875Z" fill="#606060"/>
<path d="M11.0151 11.6875C11.4035 11.6875 11.7183 11.9813 11.7183 12.3438C11.7183 12.7062 11.4035 13 11.0151 13C10.6268 13 10.312 12.7062 10.312 12.3438C10.312 11.9813 10.6268 11.6875 11.0151 11.6875Z" fill="#606060"/>
<path d="M8.67114 13.875C9.05946 13.875 9.37427 14.1688 9.37427 14.5312C9.37427 14.8937 9.05946 15.1875 8.67114 15.1875C8.28282 15.1875 7.96802 14.8937 7.96802 14.5312C7.96802 14.1688 8.28282 13.875 8.67114 13.875Z" fill="#606060"/>
<path d="M11.0151 13.875C11.4035 13.875 11.7183 14.1688 11.7183 14.5312C11.7183 14.8937 11.4035 15.1875 11.0151 15.1875C10.6268 15.1875 10.312 14.8937 10.312 14.5312C10.312 14.1688 10.6268 13.875 11.0151 13.875Z" fill="#606060"/>
<path d="M3.98413 13.875C4.37245 13.875 4.68726 14.1688 4.68726 14.5312C4.68726 14.8937 4.37245 15.1875 3.98413 15.1875C3.59581 15.1875 3.28101 14.8937 3.28101 14.5312C3.28101 14.1688 3.59581 13.875 3.98413 13.875Z" fill="#606060"/>
<path d="M6.32813 13.875C6.71645 13.875 7.03125 14.1688 7.03125 14.5312C7.03125 14.8937 6.71645 15.1875 6.32813 15.1875C5.9398 15.1875 5.625 14.8937 5.625 14.5312C5.625 14.1688 5.9398 13.875 6.32813 13.875Z" fill="#606060"/>
<path d="M3.98413 16.0625C4.37245 16.0625 4.68726 16.3563 4.68726 16.7188C4.68726 17.0812 4.37245 17.375 3.98413 17.375C3.59581 17.375 3.28101 17.0812 3.28101 16.7188C3.28101 16.3563 3.59581 16.0625 3.98413 16.0625Z" fill="#606060"/>
<path d="M6.32813 16.0625C6.71645 16.0625 7.03125 16.3563 7.03125 16.7188C7.03125 17.0812 6.71645 17.375 6.32813 17.375C5.9398 17.375 5.625 17.0812 5.625 16.7188C5.625 16.3563 5.9398 16.0625 6.32813 16.0625Z" fill="#606060"/>
<path d="M8.67114 16.0625C9.05946 16.0625 9.37427 16.3563 9.37427 16.7188C9.37427 17.0812 9.05946 17.375 8.67114 17.375C8.28282 17.375 7.96802 17.0812 7.96802 16.7188C7.96802 16.3563 8.28282 16.0625 8.67114 16.0625Z" fill="#606060"/>
<path fill-rule="evenodd" clip-rule="evenodd" d="M3.74976 6.875C3.49087 6.875 3.28101 7.07088 3.28101 7.3125V8.1875C3.28101 8.42912 3.49087 8.625 3.74976 8.625C4.00864 8.625 4.21851 8.42912 4.21851 8.1875V7.3125C4.21851 7.07088 4.00864 6.875 3.74976 6.875ZM11.2498 6.875C10.9909 6.875 10.781 7.07088 10.781 7.3125V8.1875C10.781 8.42912 10.9909 8.625 11.2498 8.625C11.5086 8.625 11.7185 8.42912 11.7185 8.1875V7.3125C11.7185 7.07088 11.5086 6.875 11.2498 6.875Z" fill="#606060"/>
<path d="M13.5933 10.8125H1.40576V9.9375H13.5933V10.8125Z" fill="#606060"/>
</g>
</g>
<path fill-rule="evenodd" clip-rule="evenodd" d="M15 14C18.866 14 22 10.866 22 7C22 3.13401 18.866 0 15 0C11.134 0 8 3.13401 8 7C8 10.866 11.134 14 15 14Z" fill="#009951"/>
<path d="M13 7.5L14.25 9L18 6" stroke="white" stroke-linecap="round"/>
</svg>
