<svg width="24" height="24" viewBox="0 0 24 24" fill="none" xmlns="http://www.w3.org/2000/svg">
<path d="M6 9.5C6 6.46243 8.46243 4 11.5 4C14.1907 4 16.432 5.93318 16.907 8.48668C16.9736 8.84475 17.2297 9.1383 17.5754 9.25295C19.5661 9.9132 21 11.7905 21 14C21 16.7614 18.7614 19 16 19C15.4477 19 15 19.4477 15 20C15 20.5523 15.4477 21 16 21C19.866 21 23 17.866 23 14C23 11.1075 21.2462 8.62697 18.7463 7.55958C17.8909 4.358 14.9717 2 11.5 2C7.35786 2 4 5.35786 4 9.5C4 9.60028 4.00197 9.70014 4.00589 9.79955C2.21048 10.8354 1 12.7754 1 15C1 18.3137 3.68629 21 7 21C7.55228 21 8 20.5523 8 20C8 19.4477 7.55228 19 7 19C4.79086 19 3 17.2091 3 15C3 13.3427 4.00818 11.9185 5.44865 11.3117C5.86549 11.1361 6.11256 10.7026 6.05119 10.2544C6.01748 10.0083 6 9.75644 6 9.5Z" fill="#667185"/>
<path d="M11.3356 14.2526C11.7145 13.9158 12.2855 13.9158 12.6644 14.2526L14.1644 15.5859C14.5771 15.9528 14.6143 16.5849 14.2474 16.9977C13.9264 17.3588 13.4025 17.4325 13 17.1996V22C13 22.5523 12.5523 23 12 23C11.4477 23 11 22.5523 11 22V17.1996C10.5975 17.4325 10.0736 17.3588 9.75259 16.9977C9.38567 16.5849 9.42285 15.9528 9.83564 15.5859L11.3356 14.2526Z" fill="#667185"/>
</svg>
