<svg width="48" height="48" viewBox="0 0 48 48" fill="none" xmlns="http://www.w3.org/2000/svg">
<circle cx="24" cy="24" r="24" fill="#F0F2F5"/>
<path d="M18 21.5C18 18.4624 20.4624 16 23.5 16C26.1907 16 28.432 17.9332 28.907 20.4867C28.9736 20.8448 29.2297 21.1383 29.5754 21.2529C31.5661 21.9132 33 23.7905 33 26C33 28.7614 30.7614 31 28 31C27.4477 31 27 31.4477 27 32C27 32.5523 27.4477 33 28 33C31.866 33 35 29.866 35 26C35 23.1075 33.2462 20.627 30.7463 19.5596C29.8909 16.358 26.9717 14 23.5 14C19.3579 14 16 17.3579 16 21.5C16 21.6003 16.002 21.7001 16.0059 21.7996C14.2105 22.8354 13 24.7754 13 27C13 30.3137 15.6863 33 19 33C19.5523 33 20 32.5523 20 32C20 31.4477 19.5523 31 19 31C16.7909 31 15 29.2091 15 27C15 25.3427 16.0082 23.9185 17.4487 23.3117C17.8655 23.1361 18.1126 22.7026 18.0512 22.2544C18.0175 22.0083 18 21.7564 18 21.5Z" fill="#667185"/>
<path d="M23.3356 26.2526C23.7145 25.9158 24.2855 25.9158 24.6644 26.2526L26.1644 27.5859C26.5771 27.9528 26.6143 28.5849 26.2474 28.9977C25.9264 29.3588 25.4025 29.4325 25 29.1996V34C25 34.5523 24.5523 35 24 35C23.4477 35 23 34.5523 23 34V29.1996C22.5975 29.4325 22.0736 29.3588 21.7526 28.9977C21.3857 28.5849 21.4229 27.9528 21.8356 27.5859L23.3356 26.2526Z" fill="#667185"/>
</svg>
