<svg width="14" height="14" viewBox="0 0 14 14" fill="none" xmlns="http://www.w3.org/2000/svg">
<mask id="mask0_2550_1205" style="mask-type:luminance" maskUnits="userSpaceOnUse" x="0" y="0" width="14" height="14">
<path d="M0 0H14V14H0V0Z" fill="white"/>
</mask>
<g mask="url(#mask0_2550_1205)">
<mask id="mask1_2550_1205" style="mask-type:luminance" maskUnits="userSpaceOnUse" x="0" y="0" width="14" height="14">
<path d="M0 0H14V14H0V0Z" fill="white"/>
</mask>
<g mask="url(#mask1_2550_1205)">
<path fill-rule="evenodd" clip-rule="evenodd" d="M12.6625 0.754349C12.4347 0.526545 12.0653 0.526545 11.8376 0.754349L6.60882 5.98309C5.96073 5.51338 5.21839 5.28216 4.3818 5.28942C3.34764 5.29841 2.46491 5.66854 1.73362 6.39983C1.00233 7.13112 0.632197 8.01384 0.623213 9.04799C0.61423 10.0822 0.968978 10.9712 1.68745 11.7151C2.42923 12.4669 3.32612 12.8446 4.37811 12.8481C5.43011 12.8516 6.32805 12.4814 7.07192 11.7375C7.8158 10.9937 8.18597 10.0957 8.18245 9.04372C8.1796 8.19309 7.9331 7.44481 7.44293 6.79889L9.04169 5.20012L10.3793 6.53764C10.4339 6.59234 10.497 6.63449 10.5685 6.66409C10.64 6.69369 10.7144 6.7085 10.7917 6.7085C10.8691 6.7085 10.9435 6.69369 11.0149 6.66409C11.0864 6.63449 11.1495 6.59234 11.2042 6.53764L13.2458 4.49597C13.2711 4.47074 13.2938 4.44343 13.314 4.41403C13.3332 4.38617 13.3498 4.35686 13.3638 4.32611C13.3779 4.29536 13.3893 4.26362 13.3978 4.2309C13.4063 4.19818 13.412 4.16497 13.4147 4.13127C13.4175 4.09756 13.4173 4.06387 13.4142 4.0302C13.4112 3.99652 13.4052 3.96337 13.3963 3.93073C13.3875 3.8981 13.3759 3.86647 13.3615 3.83585C13.3472 3.80523 13.3303 3.77609 13.3109 3.74841C13.2914 3.72072 13.2698 3.69493 13.2458 3.67102L11.9083 2.3335L12.6625 1.57931C12.8903 1.3515 12.8903 0.982153 12.6625 0.754349ZM11.0834 3.15845L12.0084 4.0835L10.7917 5.3002L9.86664 4.37516L11.0834 3.15845ZM4.38202 11.6814C5.11033 11.6839 5.73197 11.4276 6.24696 10.9126C6.76195 10.3976 7.01823 9.77597 7.0158 9.04764C7.01336 8.31934 6.75292 7.69942 6.2345 7.18789C5.72287 6.69377 5.10868 6.44982 4.39194 6.45604C3.67598 6.46226 3.06486 6.71851 2.55858 7.22479C2.0523 7.73107 1.79606 8.34218 1.78984 9.05814C1.78362 9.7741 2.02921 10.3896 2.52662 10.9046C3.03525 11.42 3.65372 11.679 4.38202 11.6814Z" fill="#606060"/>
</g>
</g>
</svg>
