<svg width="16" height="12" viewBox="0 0 16 12" fill="none" xmlns="http://www.w3.org/2000/svg">
<mask id="path-1-inside-1_503_11553" fill="white">
<path d="M8 12H0V10H8V12ZM16 7H0V5H16V7ZM16 2H8V0H16V2Z"/>
</mask>
<path d="M8 12H0V10H8V12ZM16 7H0V5H16V7ZM16 2H8V0H16V2Z" fill="#202224"/>
<path d="M8 12V12.5H8.5V12H8ZM0 12H-0.5V12.5H0V12ZM0 10V9.5H-0.5V10H0ZM8 10H8.5V9.5H8V10ZM16 7V7.5H16.5V7H16ZM0 7H-0.5V7.5H0V7ZM0 5V4.5H-0.5V5H0ZM16 5H16.5V4.5H16V5ZM16 2V2.5H16.5V2H16ZM8 2H7.5V2.5H8V2ZM8 0V-0.5H7.5V0H8ZM16 0H16.5V-0.5H16V0ZM8 12V11.5H0V12V12.5H8V12ZM0 12H0.5V10H0H-0.5V12H0ZM0 10V10.5H8V10V9.5H0V10ZM8 10H7.5V12H8H8.5V10H8ZM16 7V6.5H0V7V7.5H16V7ZM0 7H0.5V5H0H-0.5V7H0ZM0 5V5.5H16V5V4.5H0V5ZM16 5H15.5V7H16H16.5V5H16ZM16 2V1.5H8V2V2.5H16V2ZM8 2H8.5V0H8H7.5V2H8ZM8 0V0.5H16V0V-0.5H8V0ZM16 0H15.5V2H16H16.5V0H16Z" fill="white" mask="url(#path-1-inside-1_503_11553)"/>
</svg>
