<svg width="14" height="14" viewBox="0 0 14 14" fill="none" xmlns="http://www.w3.org/2000/svg">
<mask id="mask0_2550_1198" style="mask-type:luminance" maskUnits="userSpaceOnUse" x="0" y="0" width="14" height="14">
<path d="M0 0H14V14H0V0Z" fill="white"/>
</mask>
<g mask="url(#mask0_2550_1198)">
<path fill-rule="evenodd" clip-rule="evenodd" d="M6.41675 11.6668C6.41675 11.989 6.67792 12.2502 7.00008 12.2502H12.2501C12.5722 12.2502 12.8334 11.989 12.8334 11.6668C12.8334 11.3447 12.5722 11.0835 12.2501 11.0835H7.00008C6.67792 11.0835 6.41675 11.3447 6.41675 11.6668Z" fill="#606060"/>
<path d="M9.2126 1.62924C9.56815 1.27371 9.99732 1.09595 10.5001 1.09595C11.0029 1.09595 11.4321 1.27371 11.7876 1.62924C12.1431 1.98477 12.3209 2.41393 12.3209 2.91672C12.3209 3.41951 12.1431 3.84867 11.7876 4.20419L4.49592 11.4959C4.41975 11.572 4.32942 11.6232 4.22492 11.6493L1.89158 12.2326C1.85443 12.2419 1.81672 12.2475 1.77846 12.2493C1.7402 12.2512 1.70213 12.2493 1.66425 12.2437C1.62636 12.238 1.58939 12.2288 1.55333 12.2159C1.51728 12.203 1.48283 12.1866 1.44998 12.1669C1.41714 12.1472 1.38653 12.1245 1.35816 12.0988C1.3298 12.073 1.30421 12.0448 1.28141 12.014C1.25861 11.9832 1.23902 11.9505 1.22266 11.9159C1.2063 11.8812 1.19348 11.8454 1.18419 11.8082C1.16061 11.7139 1.16061 11.6196 1.18419 11.5253L1.76752 9.19189C1.79365 9.0874 1.84479 8.99708 1.92096 8.92092L9.2126 1.62924ZM10.0376 2.45419L2.74592 9.74587L2.33344 9.33336L2.89936 9.47483L2.31602 11.8082L1.75011 11.6667L1.60863 11.1008L3.94196 10.5175L4.08344 11.0834L3.67096 10.6709L10.9626 3.37924C11.0903 3.25152 11.1542 3.09734 11.1542 2.91672C11.1542 2.73609 11.0903 2.58192 10.9626 2.45419C10.8349 2.32647 10.6808 2.26261 10.5001 2.26261C10.3195 2.26261 10.1653 2.32647 10.0376 2.45419Z" fill="#606060"/>
</g>
</svg>
