<svg width="20" height="21" viewBox="0 0 20 21" fill="none" xmlns="http://www.w3.org/2000/svg">
<mask id="mask0_2550_1279" style="mask-type:luminance" maskUnits="userSpaceOnUse" x="0" y="6" width="13" height="15">
<path d="M0.5 6.5H12.75V20.5H0.5V6.5Z" fill="white"/>
</mask>
<g mask="url(#mask0_2550_1279)">
<mask id="mask1_2550_1279" style="mask-type:luminance" maskUnits="userSpaceOnUse" x="0" y="6" width="13" height="15">
<path d="M0.5 6.5H12.75V20.5H0.5V6.5Z" fill="white"/>
</mask>
<g mask="url(#mask1_2550_1279)">
<path d="M6.62355 20.5C7.46861 20.5 8.15409 19.7166 8.15409 18.75H5.09302C5.09302 19.7166 5.7785 20.5 6.62355 20.5ZM11.7769 16.4063C11.3147 15.8387 10.4497 14.9848 10.4497 12.1875C10.4497 10.0629 9.14628 8.36211 7.38869 7.94484V7.375C7.38869 6.89184 7.04608 6.5 6.62355 6.5C6.20102 6.5 5.85841 6.89184 5.85841 7.375V7.94485C4.10082 8.36211 2.79734 10.0629 2.79734 12.1875C2.79734 14.9848 1.93242 15.8387 1.47018 16.4063C1.32662 16.5827 1.26298 16.7936 1.26418 17C1.26681 17.4484 1.57473 17.875 2.03219 17.875H11.2149C11.6723 17.875 11.9805 17.4484 11.9829 17C11.9841 16.7936 11.9205 16.5824 11.7769 16.4063Z" fill="#6B7280"/>
</g>
</g>
<path fill-rule="evenodd" clip-rule="evenodd" d="M13 14C16.866 14 20 10.866 20 7C20 3.13401 16.866 0 13 0C9.13401 0 6 3.13401 6 7C6 10.866 9.13401 14 13 14Z" fill="#F93C65"/>
<path d="M12.97 10.1C12.5967 10.1 12.25 10.0367 11.93 9.91C11.6167 9.77667 11.3433 9.59667 11.11 9.37C10.8833 9.14333 10.7033 8.87667 10.57 8.57C10.4433 8.26333 10.38 7.93667 10.38 7.59C10.38 7.25 10.43 6.92333 10.53 6.61C10.63 6.29667 10.7667 6.02 10.94 5.78L12.99 2.7H14.14L12.48 5.15C12.5867 5.11667 12.6933 5.09333 12.8 5.08C12.9133 5.06 13.03 5.05 13.15 5.05C13.4833 5.05 13.7967 5.11333 14.09 5.24C14.3833 5.36667 14.6367 5.54333 14.85 5.77C15.07 5.99 15.2433 6.25667 15.37 6.57C15.4967 6.87667 15.56 7.21333 15.56 7.58C15.56 7.94 15.4933 8.27333 15.36 8.58C15.2267 8.88667 15.0433 9.15333 14.81 9.38C14.5833 9.60667 14.31 9.78333 13.99 9.91C13.6767 10.0367 13.3367 10.1 12.97 10.1ZM12.96 9.22C13.1867 9.22 13.3967 9.17667 13.59 9.09C13.79 9.00333 13.9633 8.88667 14.11 8.74C14.2633 8.58667 14.3833 8.41 14.47 8.21C14.5567 8.00333 14.6 7.78667 14.6 7.56C14.6 7.33333 14.5567 7.12333 14.47 6.93C14.3833 6.73 14.2633 6.55667 14.11 6.41C13.9633 6.25667 13.79 6.13667 13.59 6.05C13.3967 5.96333 13.1867 5.92 12.96 5.92C12.7333 5.92 12.52 5.96333 12.32 6.05C12.12 6.13667 11.9467 6.25333 11.8 6.4C11.6533 6.54667 11.5367 6.72 11.45 6.92C11.37 7.12 11.33 7.33333 11.33 7.56C11.33 7.78667 11.37 8.00333 11.45 8.21C11.5367 8.41 11.6533 8.58667 11.8 8.74C11.9467 8.88667 12.12 9.00333 12.32 9.09C12.52 9.17667 12.7333 9.22 12.96 9.22Z" fill="white"/>
</svg>
