<svg width="14" height="14" viewBox="0 0 14 14" fill="none" xmlns="http://www.w3.org/2000/svg">
<path d="M7.76009 2.42148V9.08149C7.76009 9.50149 7.42009 9.84149 7.00009 9.84149C6.58009 9.84149 6.26009 9.50149 6.26009 9.08149V2.42148L3.74009 4.64149C3.44009 4.92149 2.96009 4.90149 2.70009 4.58149C2.42009 4.28149 2.44009 3.80149 2.76009 3.52149L6.50009 0.201482C6.78009 -0.0585188 7.20009 -0.0585188 7.50009 0.181482C7.50009 0.201482 7.50009 0.201482 7.50009 0.201482L11.2401 3.52149C11.5601 3.80149 11.5801 4.28149 11.3201 4.58149C11.0401 4.90149 10.5601 4.92149 10.2601 4.64149L7.76009 2.42148ZM12.1601 11.0815C12.1601 10.6615 12.5001 10.3415 12.9201 10.3415C13.3401 10.3415 13.6601 10.6615 13.6601 11.0815V12.9215C13.6601 13.3215 13.3401 13.6615 12.9201 13.6615H1.08009C0.680088 13.6615 0.340088 13.3215 0.340088 12.9215V11.0815C0.340088 10.6615 0.680088 10.3415 1.08009 10.3415C1.50009 10.3415 1.84009 10.6615 1.84009 11.0815V12.1615H12.1601V11.0815Z" fill="#38AEE0"/>
</svg>
